<?xml version="1.0" encoding="utf-8"?>
<!-- Generator: Adobe Illustrator 19.0.0, SVG Export Plug-In . SVG Version: 6.00 Build 0)  -->
<svg version="1.1" id="Layer_1" xmlns="http://www.w3.org/2000/svg" xmlns:xlink="http://www.w3.org/1999/xlink" x="0px" y="0px"
	 viewBox="0 0 40.8 34.1" style="enable-background:new 0 0 40.8 34.1;" xml:space="preserve">
<style type="text/css">
	.st0{fill:#FF7700;}
	.st1{fill:#FFFFFF;}
</style>
<g>
	<rect class="st0" width="35.8" height="34.1"/>
	<polygon class="st0" points="33.8,9.6 40.8,16.2 33.8,22.8 	"/>
</g>
<path class="st1" d="M21.4,10.7c-1.6,0-3,1.1-3.4,2.5c-0.1-0.2-0.2-0.3-0.3-0.5c-0.6-1.2-1.8-2.1-3.2-2.1c-2,0-3.6,1.6-3.6,3.6
	c0,0.4,0.1,0.7,0.2,1c0.4,2.4,4.6,5.6,7,8.1c0,0,0,0,0,0c2.6-3.2,6.5-5.8,6.7-8.1c0.1-0.3,0.1-0.7,0.1-1
	C24.9,12.3,23.3,10.7,21.4,10.7z"/>
</svg>
