<?xml version="1.0" encoding="utf-8"?>
<!-- Generator: Adobe Illustrator 19.0.0, SVG Export Plug-In . SVG Version: 6.00 Build 0)  -->
<svg version="1.1" id="Layer_1" xmlns="http://www.w3.org/2000/svg" xmlns:xlink="http://www.w3.org/1999/xlink" x="0px" y="0px"
	 viewBox="0 0 40.8 34.1" style="enable-background:new 0 0 40.8 34.1;" xml:space="preserve">
<style type="text/css">
	.st0{fill:#32ACFC;}
	.st1{fill:#FFFFFF;}
</style>
<g id="XMLID_20_">
	<rect id="XMLID_22_" x="0" class="st0" width="35.8" height="34.1"/>
	<polygon id="XMLID_21_" class="st0" points="33.8,9.6 40.8,16.2 33.8,22.8 	"/>
</g>
<g id="XMLID_15_">
	<polygon id="XMLID_19_" class="st1" points="10.9,24 14.2,22.5 12.5,20.7 	"/>
	<path id="XMLID_16_" class="st1" d="M23.2,11.7c-1.7-1.7-3.4-2.7-4-2.3l0,0c0,0,0,0,0,0c0,0,0,0,0,0c0,0,0,0,0,0
		c-1,1.1-1.4,2.5-1.1,3.9L16,15.4c-2-0.7-4.2-0.2-5.8,1.3l3.1,3.1l0,0l1.8,1.8l0,0l3.1,3.1c1.5-1.6,2-3.8,1.3-5.8l2.1-2.1
		c1.4,0.3,2.9-0.1,4-1.2l0,0C25.9,15.1,24.9,13.4,23.2,11.7z M24.4,15.2c-0.3,0.3-1.5-0.5-2.8-1.8c-1.3-1.3-2.1-2.5-1.8-2.8
		c0.3-0.3,1.5,0.5,2.8,1.8C23.9,13.6,24.7,14.9,24.4,15.2z"/>
</g>
</svg>
