<?xml version="1.0" encoding="utf-8"?>
<!-- Generator: Adobe Illustrator 19.0.0, SVG Export Plug-In . SVG Version: 6.00 Build 0)  -->
<svg version="1.1" id="Layer_1" xmlns="http://www.w3.org/2000/svg" xmlns:xlink="http://www.w3.org/1999/xlink" x="0px" y="0px"
	 viewBox="0 0 128.8 35" style="enable-background:new 0 0 128.8 35;" xml:space="preserve">
<style type="text/css">
	.st0{fill:#FF7700;}
	.st1{fill:#32ACFC;}
</style>
<g>
	<g>
		<path class="st0" d="M77,12.4c0-0.6-0.3-0.8-0.8-0.8h-1.5V7.4H79c1.8,0,2.5,0.8,2.5,1.9c0,0.5,0,0.8,0,0.8h0.1
			c0,0,1.6-3.1,6.2-3.1c5.3,0,8.7,4.2,8.7,10.2c0,6.2-3.8,10.2-9,10.2c-3.9,0-5.6-2.6-5.6-2.6h-0.1c0,0,0.1,0.7,0.1,1.7v8.1H77V12.4
			z M86.6,23.3c2.7,0,4.9-2.2,4.9-6.1c0-3.7-2-6.1-4.9-6.1c-2.5,0-4.9,1.8-4.9,6.2C81.7,20.3,83.3,23.3,86.6,23.3z"/>
		<path class="st0" d="M108.8,6.9c5.6,0,8.7,4.1,8.7,9.3c0,0.6-0.1,1.8-0.1,1.8h-13.5c0.4,3.4,2.9,5.2,5.9,5.2
			c3.1,0,5.5-2.2,5.5-2.2l2,3.4c0,0-3,3-7.9,3c-6.5,0-10.5-4.7-10.5-10.2C98.9,11.2,102.9,6.9,108.8,6.9z M112.5,14.6
			c-0.1-2.3-1.7-3.9-3.7-3.9c-2.5,0-4.3,1.5-4.8,3.9H112.5z"/>
		<path class="st0" d="M121.3,0h4.8v20.4c0,2.1,0.7,2.7,2,2.7c0.4,0,0.7,0,0.7,0v4.3c0,0-0.7,0.1-1.5,0.1c-2.7,0-6-0.7-6-6.3V0z"/>
	</g>
	<g>
		<path class="st1" d="M40.9,12.4c0-0.6-0.3-0.8-0.8-0.8h-1.5V7.4H43c1.7,0,2.6,0.8,2.6,2.2v0.6c0,0.4,0,0.8,0,0.8h0.1
			c0.9-1.9,3.3-4.1,6.3-4.1c3,0,4.9,1.4,5.7,4h0.1c1-2.1,3.6-4,6.7-4c4.1,0,6.4,2.3,6.4,7.4V22c0,0.5,0.3,0.8,0.8,0.8h1.5v4.1h-4.6
			c-1.8,0-2.6-0.8-2.6-2.6v-9c0-2.2-0.4-3.9-2.7-3.9c-2.4,0-4.1,2-4.7,4.5c-0.2,0.8-0.3,1.6-0.3,2.5v8.6h-4.9V15.3
			c0-2.1-0.3-3.9-2.6-3.9c-2.5,0-4.1,2-4.7,4.5c-0.2,0.8-0.3,1.6-0.3,2.5v8.6h-4.8V12.4z"/>
		<path class="st1" d="M2.3,21.1c0,0,2.2,2.1,5.5,2.1c1.4,0,2.6-0.6,2.6-1.8c0-2.9-9.8-2.5-9.8-8.8C0.6,9,4,6.9,8.3,6.9
			c4.5,0,6.7,2.2,6.7,2.2l-1.9,3.6c0,0-1.9-1.7-4.9-1.7c-1.3,0-2.6,0.5-2.6,1.8c0,2.8,9.8,2.4,9.8,8.7c0,3.3-2.9,5.9-7.7,5.9
			c-5,0-7.8-2.9-7.8-2.9L2.3,21.1z"/>
		<path class="st1" d="M34,7.4c-1.3,0-2.1,0.5-2.6,1.8L28,19c-0.3,1-0.7,2.6-0.7,2.6h-0.1c0,0-0.3-1.6-0.7-2.6v0L22.3,7.4h-5.5
			l8.2,19.5l-0.7,1.5c-0.7,1.7-1.9,2.5-3.2,2.5c-1.6,0-2.8-1.3-2.8-1.3L16.6,33c0,0,1.9,2,4.9,2c2.9,0,5.7-1.6,7.1-5.1l7-17.7
			c0.2-0.6,0.5-0.7,1.1-0.7h0.6V7.4H34z"/>
	</g>
</g>
</svg>
